<svg xmlns="http://www.w3.org/2000/svg" version="1.1" xmlns:xlink="http://www.w3.org/1999/xlink" xmlns:svgjs="http://svgjs.dev/svgjs" width="1000" height="1000" viewBox="0 0 1000 1000"><rect width="1000" height="1000" fill="#000000"></rect><g transform="matrix(0.7,0,0,0.7,149.57575757575756,282.1265587044535)"><svg viewBox="0 0 396 247" data-background-color="#ffffff" preserveAspectRatio="xMidYMid meet" height="623" width="1000" xmlns="http://www.w3.org/2000/svg" xmlns:xlink="http://www.w3.org/1999/xlink"><g id="tight-bounds" transform="matrix(1,0,0,1,0.2400000000000091,-0.09999999999999432)"><svg viewBox="0 0 395.52 247.2" height="247.2" width="395.52"><g><svg></svg></g><g><svg viewBox="0 0 395.52 247.2" height="247.2" width="395.52"><g><path xmlns="http://www.w3.org/2000/svg" d="M55.039 247.2l37.07-64.207h211.302l37.07 64.207zM197.76 0l37.07 64.207h-74.14z" fill="#000000" fill-rule="nonzero" stroke="none" stroke-width="1" stroke-linecap="butt" stroke-linejoin="miter" stroke-miterlimit="10" stroke-dasharray="" stroke-dashoffset="0" font-family="none" font-weight="none" font-size="none" text-anchor="none" style="mix-blend-mode: normal" data-fill-palette-color="tertiary"></path></g><g transform="matrix(1,0,0,1,0,81.17663161702106)"><svg viewBox="0 0 395.52 84.84673676595789" height="84.84673676595789" width="395.52"><g><svg viewBox="0 0 521.14712609361 111.79619999999998" height="84.84673676595789" width="395.52"><g><rect width="4.609176918771892" height="111.79619999999998" x="193.07520317267588" y="0" fill="#ffffff" opacity="1" stroke-width="0" stroke="transparent" fill-opacity="1" class="rect-o-0" data-fill-palette-color="primary" rx="1%" id="o-0" data-palette-color="#000000"></rect></g><g transform="matrix(1,0,0,1,209.7502882557721,0.2780999999999949)"><svg viewBox="0 0 311.3968378378379 111.24" height="111.24" width="311.3968378378379"><g><svg viewBox="0 0 311.3968378378379 111.24" height="111.24" width="311.3968378378379"><g><svg viewBox="0 0 311.3968378378379 111.24" height="111.24" width="311.3968378378379"><g transform="matrix(1,0,0,1,0,0)"><svg width="311.3968378378379" viewBox="1.5500001907348633 -33.400001525878906 210.10003662109375 71.00000762939453" height="111.24" data-palette-color="#000000"><svg></svg><svg></svg><g class="undefined-text-0" data-fill-palette-color="primary" id="text-0"><path xmlns="http://www.w3.org/2000/svg" d="M23 0h-18.5v-32.8h4.15v29.25h14.35zM48.2 0h-19.4v-32.8h18.9v3.5h-14.75v10.3h12.45v3.55h-12.45v11.9h15.25zM60.8-18.35v0l-1.55 5h9.85l-1.55-5c-0.6-1.833-1.167-3.66-1.7-5.48-0.533-1.813-1.067-3.67-1.6-5.57v0h-0.2c-0.5 1.9-1.017 3.757-1.55 5.57-0.533 1.82-1.1 3.647-1.7 5.48zM55.05 0h-4.25l11.1-32.8h4.7l11.1 32.8h-4.45l-3.1-10h-11.95zM86.5 0h-4.15v-32.8h10.25c1.667 0 3.21 0.157 4.63 0.47 1.413 0.32 2.63 0.847 3.65 1.58 1.013 0.733 1.803 1.683 2.37 2.85 0.567 1.167 0.85 2.6 0.85 4.3v0c0 2.567-0.667 4.617-2 6.15-1.333 1.533-3.133 2.583-5.4 3.15v0l8.35 14.3h-4.7l-7.9-13.85h-5.95zM86.5-29.45v12.2h5.5c2.567 0 4.533-0.523 5.9-1.57 1.367-1.053 2.05-2.647 2.05-4.78v0c0-2.167-0.683-3.683-2.05-4.55-1.367-0.867-3.333-1.3-5.9-1.3v0zM114.75 0h-3.95v-32.8h4.3l11.85 20.6 3.55 6.8h0.2c-0.1-1.667-0.207-3.393-0.32-5.18-0.12-1.78-0.18-3.537-0.18-5.27v0-16.95h3.95v32.8h-4.3l-11.9-20.65-3.55-6.75h-0.2c0.133 1.667 0.26 3.357 0.38 5.07 0.113 1.72 0.17 3.447 0.17 5.18v0zM147.3 0h-4.15v-32.8h4.15zM160.25 0h-3.95v-32.8h4.3l11.85 20.6 3.55 6.8h0.2c-0.1-1.667-0.207-3.393-0.32-5.18-0.12-1.78-0.18-3.537-0.18-5.27v0-16.95h3.95v32.8h-4.3l-11.9-20.65-3.55-6.75h-0.2c0.133 1.667 0.26 3.357 0.38 5.07 0.113 1.72 0.17 3.447 0.17 5.18v0zM201.55 0.6v0c-2.167 0-4.157-0.383-5.97-1.15-1.82-0.767-3.38-1.877-4.68-3.33-1.3-1.447-2.317-3.227-3.05-5.34-0.733-2.12-1.1-4.513-1.1-7.18v0c0-2.633 0.377-5 1.13-7.1 0.747-2.1 1.787-3.883 3.12-5.35 1.333-1.467 2.927-2.593 4.78-3.38 1.847-0.78 3.853-1.17 6.02-1.17v0c1.133 0 2.177 0.117 3.13 0.35 0.947 0.233 1.813 0.54 2.6 0.92 0.78 0.387 1.48 0.82 2.1 1.3 0.613 0.487 1.153 0.98 1.62 1.48v0l-2.3 2.7c-0.833-0.867-1.8-1.6-2.9-2.2-1.1-0.6-2.483-0.9-4.15-0.9v0c-1.667 0-3.167 0.307-4.5 0.92-1.333 0.62-2.467 1.503-3.4 2.65-0.933 1.153-1.657 2.547-2.17 4.18-0.52 1.633-0.78 3.467-0.78 5.5v0c0 2.067 0.243 3.923 0.73 5.57 0.48 1.653 1.18 3.063 2.1 4.23 0.913 1.167 2.047 2.067 3.4 2.7 1.347 0.633 2.903 0.95 4.67 0.95v0c1.167 0 2.277-0.177 3.33-0.53 1.047-0.347 1.903-0.82 2.57-1.42v0-8.55h-6.95v-3.45h10.75v13.8c-1.067 1.1-2.467 2.007-4.2 2.72-1.733 0.72-3.7 1.08-5.9 1.08z" fill="#ffffff" fill-rule="nonzero" stroke="none" stroke-width="1" stroke-linecap="butt" stroke-linejoin="miter" stroke-miterlimit="10" stroke-dasharray="" stroke-dashoffset="0" font-family="none" font-weight="none" font-size="none" text-anchor="none" style="mix-blend-mode: normal" data-fill-palette-color="primary" opacity="1"></path><path xmlns="http://www.w3.org/2000/svg" d="M10.6 37.6v0c-4.1 0-7.117-1.75-9.05-5.25v0l3-2.1c0.733 1.3 1.567 2.24 2.5 2.82 0.933 0.587 1.983 0.88 3.15 0.88v0c1.767 0 3.083-0.54 3.95-1.62 0.867-1.087 1.3-2.88 1.3-5.38v0-22.75h4.2v23.15c0 1.4-0.173 2.723-0.52 3.97-0.353 1.253-0.887 2.347-1.6 3.28-0.72 0.933-1.653 1.667-2.8 2.2-1.153 0.533-2.53 0.8-4.13 0.8zM40.6 37.6v0c-2.067 0-3.96-0.4-5.68-1.2-1.713-0.8-3.187-1.943-4.42-3.43-1.233-1.48-2.19-3.28-2.87-5.4-0.687-2.113-1.03-4.487-1.03-7.12v0c0-2.633 0.343-4.993 1.03-7.08 0.68-2.08 1.637-3.847 2.87-5.3 1.233-1.447 2.707-2.553 4.42-3.32 1.72-0.767 3.613-1.15 5.68-1.15v0c2.067 0 3.96 0.39 5.68 1.17 1.713 0.787 3.197 1.903 4.45 3.35 1.247 1.453 2.213 3.22 2.9 5.3 0.68 2.087 1.02 4.43 1.02 7.03v0c0 2.633-0.34 5.007-1.02 7.12-0.687 2.12-1.653 3.92-2.9 5.4-1.253 1.487-2.737 2.63-4.45 3.43-1.72 0.8-3.613 1.2-5.68 1.2zM40.6 33.95v0c1.467 0 2.793-0.317 3.98-0.95 1.18-0.633 2.197-1.543 3.05-2.73 0.847-1.18 1.503-2.597 1.97-4.25 0.467-1.647 0.7-3.503 0.7-5.57v0c0-2.033-0.233-3.867-0.7-5.5-0.467-1.633-1.123-3.017-1.97-4.15-0.853-1.133-1.87-2.01-3.05-2.63-1.187-0.613-2.513-0.92-3.98-0.92v0c-1.467 0-2.79 0.307-3.97 0.92-1.187 0.62-2.203 1.497-3.05 2.63-0.853 1.133-1.513 2.517-1.98 4.15-0.467 1.633-0.7 3.467-0.7 5.5v0c0 2.067 0.233 3.923 0.7 5.57 0.467 1.653 1.127 3.07 1.98 4.25 0.847 1.187 1.863 2.097 3.05 2.73 1.18 0.633 2.503 0.95 3.97 0.95zM73.35 37.6v0c-1.667 0-3.223-0.243-4.67-0.73-1.453-0.48-2.707-1.28-3.76-2.4-1.047-1.113-1.87-2.57-2.47-4.37-0.6-1.8-0.9-4.017-0.9-6.65v0-19.25h4.15v19.35c0 1.967 0.2 3.617 0.6 4.95 0.4 1.333 0.943 2.4 1.63 3.2 0.68 0.8 1.487 1.373 2.42 1.72 0.933 0.353 1.933 0.53 3 0.53v0c1.1 0 2.117-0.177 3.05-0.53 0.933-0.347 1.75-0.92 2.45-1.72 0.7-0.8 1.25-1.867 1.65-3.2 0.4-1.333 0.6-2.983 0.6-4.95v0-19.35h4v19.25c0 2.633-0.3 4.85-0.9 6.65-0.6 1.8-1.423 3.257-2.47 4.37-1.053 1.12-2.297 1.92-3.73 2.4-1.433 0.487-2.983 0.73-4.65 0.73zM98.1 37h-4.15v-32.8h10.25c1.667 0 3.21 0.157 4.63 0.47 1.413 0.32 2.63 0.847 3.65 1.58 1.013 0.733 1.803 1.683 2.37 2.85 0.567 1.167 0.85 2.6 0.85 4.3v0c0 2.567-0.667 4.617-2 6.15-1.333 1.533-3.133 2.583-5.4 3.15v0l8.35 14.3h-4.7l-7.9-13.85h-5.95zM98.1 7.55v12.2h5.5c2.567 0 4.533-0.523 5.9-1.57 1.367-1.053 2.05-2.647 2.05-4.78v0c0-2.167-0.683-3.683-2.05-4.55-1.367-0.867-3.333-1.3-5.9-1.3v0zM126.35 37h-3.95v-32.8h4.3l11.85 20.6 3.55 6.8h0.2c-0.1-1.667-0.207-3.393-0.32-5.18-0.12-1.78-0.18-3.537-0.18-5.27v0-16.95h3.95v32.8h-4.3l-11.9-20.65-3.55-6.75h-0.2c0.133 1.667 0.26 3.357 0.38 5.07 0.113 1.72 0.17 3.447 0.17 5.18v0zM160.4 18.65v0l-1.55 5h9.85l-1.55-5c-0.6-1.833-1.167-3.66-1.7-5.48-0.533-1.813-1.067-3.67-1.6-5.57v0h-0.2c-0.5 1.9-1.017 3.757-1.55 5.57-0.533 1.82-1.1 3.647-1.7 5.48zM154.65 37h-4.25l11.1-32.8h4.7l11.1 32.8h-4.45l-3.1-10h-11.95zM200.45 37h-18.5v-32.8h4.15v29.25h14.35z" fill="#ffffff" fill-rule="nonzero" stroke="none" stroke-width="1" stroke-linecap="butt" stroke-linejoin="miter" stroke-miterlimit="10" stroke-dasharray="" stroke-dashoffset="0" font-family="none" font-weight="none" font-size="none" text-anchor="none" style="mix-blend-mode: normal" data-fill-palette-color="primary" opacity="1"></path></g></svg></g></svg></g></svg></g></svg></g><g transform="matrix(1,0,0,1,0,0.2780999999999949)"><svg viewBox="0 0 181.00929500835156 111.24" height="111.24" width="181.00929500835156"><g><svg xmlns="http://www.w3.org/2000/svg" data-name="Layer 1" viewBox="2.430551767349243 20.79190444946289 95.1390609741211 58.46809768676758" x="0" y="0" height="111.24" width="181.00929500835156" class="icon-icon-0" data-fill-palette-color="accent" id="icon-0"><path d="M62.78 23l32 55.42 1.3-2.26h-64l1.3 2.26L65.37 23a1.5 1.5 0 0 0-2.59-1.51L30.79 77a1.51 1.51 0 0 0 1.3 2.26h64A1.51 1.51 0 0 0 97.37 77l-32-55.42A1.5 1.5 0 0 0 62.78 23Z" fill="#ffffff" data-fill-palette-color="accent"></path><path d="M34.63 23l32 55.42 1.3-2.26h-64l1.3 2.26L37.22 23a1.5 1.5 0 0 0-2.59-1.51L2.63 77a1.51 1.51 0 0 0 1.3 2.26h64A1.51 1.51 0 0 0 69.21 77l-32-55.42A1.5 1.5 0 0 0 34.63 23Z" fill="#ffffff" data-fill-palette-color="accent"></path></svg></g></svg></g></svg></g></svg></g></svg></g><defs></defs></svg><rect width="395.52" height="247.2" fill="none" stroke="none" visibility="hidden"></rect></g></svg></g></svg>